<svg width="20" height="9" viewBox="0 0 20 9" fill="none" xmlns="http://www.w3.org/2000/svg">
<path d="M0.395258 0.311765C0.658763 0.103913 0.373048 0.209007 0.733522 0.209007C1.094 0.209007 1.40563 0.312933 1.66844 0.520785L10 6.99999L18.5 0.499988C18.7459 0.305993 19.0534 0.208996 19.4223 0.208996C19.7912 0.208996 19.3412 0.103914 19.6047 0.311766C19.8682 0.519618 20 0.765715 20 1.05006C20 1.3344 19.8682 1.58022 19.6047 1.78751L10.7246 8.77134C10.6192 8.85448 10.5051 8.91351 10.3821 8.94843C10.2591 8.98335 10.1274 9.00053 9.98682 8.99998C9.84629 8.99998 9.71454 8.98252 9.59157 8.9476C9.4686 8.91268 9.35441 8.85393 9.24901 8.77134L0.368908 1.76673C0.12297 1.57273 -5.03176e-08 1.33356 -3.78886e-08 1.04922C-2.54596e-08 0.764882 0.131753 0.519063 0.395258 0.311765Z" fill="black"/>
</svg>
