<svg width="20" height="14" viewBox="0 0 20 14" fill="none" xmlns="http://www.w3.org/2000/svg">
<path d="M19.5745 0.0863695C19.192 -0.110436 18.7212 0.0400429 18.5237 0.426511C17.3258 2.77268 14.1453 6.13622 9.99996 6.13622C6.28231 6.13622 2.97852 3.36875 1.47625 0.426471C1.27864 0.0414553 0.80801 -0.110518 0.424612 0.0874271C0.0412524 0.285373 -0.110466 0.757426 0.0859009 1.14303C1.81192 4.53036 5.60758 7.70659 9.99996 7.70659C15.0093 7.70659 18.5971 3.72758 19.914 1.14303C20.1106 0.757033 19.9586 0.283922 19.5745 0.0863695ZM0.303557 8.51925L2.04356 6.94166C2.36582 6.64945 2.85965 6.6787 3.14695 6.99874C3.43594 7.32075 3.41055 7.81722 3.09016 8.1077L1.35016 9.68529C1.02989 9.97569 0.535901 9.95025 0.24676 9.62821C-0.0422241 9.3062 -0.0168334 8.80973 0.303557 8.51925ZM17.9563 6.94166L19.6963 8.51925C20.0167 8.80973 20.0421 9.3062 19.7531 9.62821C19.4641 9.95017 18.9701 9.97577 18.6497 9.68529L16.9097 8.1077C16.5893 7.81726 16.5639 7.32075 16.8529 6.99874C17.1405 6.67835 17.6345 6.64981 17.9563 6.94166ZM9.99992 10.072C10.4314 10.072 10.7812 10.4235 10.7812 10.8571V13.2148C10.7812 13.6484 10.4314 14 9.99992 14C9.56844 14 9.21867 13.6484 9.21867 13.2148V10.8571C9.21871 10.4235 9.56848 10.072 9.99992 10.072Z" fill="black"/>
</svg>
