<svg width="214" height="55" viewBox="0 0 214 55" fill="none" xmlns="http://www.w3.org/2000/svg">
<rect x="0.5" y="0.5" width="213" height="54" rx="27" stroke="#D9D9D9"/>
<path d="M52.8809 36H50.3887C50.3314 36 50.3027 35.9642 50.3027 35.8926L50.3457 20.7783C50.3457 20.721 50.3743 20.6924 50.4316 20.6924H53.1172C53.1745 20.6924 53.2246 20.721 53.2676 20.7783L55.2764 23.6787L57.2744 20.7783C57.3174 20.721 57.3711 20.6924 57.4355 20.6924H60.1318C60.1963 20.6924 60.2285 20.721 60.2285 20.7783L60.2715 35.8926C60.2715 35.9642 60.2428 36 60.1855 36H57.6934C57.6361 36 57.6074 35.9642 57.6074 35.8926L57.5859 24.667L55.2764 28.0186L52.9883 24.667L52.9668 35.8926C52.9668 35.9642 52.9382 36 52.8809 36ZM61.3779 35.8926L64.1064 20.7783C64.1208 20.721 64.1566 20.6924 64.2139 20.6924H67.4043C67.4616 20.6924 67.4974 20.721 67.5117 20.7783L70.1328 35.8926C70.14 35.9642 70.1113 36 70.0469 36H67.6084C67.5368 36 67.4974 35.9642 67.4902 35.8926L67.2539 34.2812H64.2568L64.0205 35.8926C64.0133 35.9642 63.9775 36 63.9131 36H61.4639C61.4066 36 61.3779 35.9642 61.3779 35.8926ZM65.6855 25.752L64.6973 31.9287H66.8135L65.9111 25.752L65.7822 24.9355L65.6855 25.752ZM75.5361 36.2148C74.7412 36.2148 74.0251 36.0179 73.3877 35.624C72.7432 35.2301 72.224 34.7002 71.8301 34.0342C71.4434 33.3682 71.25 32.6234 71.25 31.7998V24.8281C71.25 24.026 71.4469 23.2956 71.8408 22.6367C72.2275 21.9707 72.7467 21.4408 73.3984 21.0469C74.0501 20.6458 74.7627 20.4453 75.5361 20.4453C76.3454 20.4453 77.0758 20.6387 77.7275 21.0254C78.3792 21.4193 78.8949 21.9456 79.2744 22.6045C79.6611 23.2633 79.8545 24.0046 79.8545 24.8281V25.8379C79.8545 25.8952 79.8187 25.9238 79.7471 25.9238H77.2764C77.2191 25.9238 77.1904 25.8952 77.1904 25.8379V25C77.1904 24.4414 77.0329 23.9795 76.7178 23.6143C76.4027 23.249 76.0088 23.0664 75.5361 23.0664C75.1136 23.0664 74.7376 23.2419 74.4082 23.5928C74.0788 23.9437 73.9141 24.3555 73.9141 24.8281V31.7998C73.9141 32.2796 74.0752 32.695 74.3975 33.0459C74.7197 33.3896 75.0993 33.5615 75.5361 33.5615C76.0088 33.5615 76.4027 33.3932 76.7178 33.0566C77.0329 32.7129 77.1904 32.2939 77.1904 31.7998V30.7148H75.6543C75.5755 30.7148 75.5361 30.679 75.5361 30.6074V28.1475C75.5361 28.0758 75.5755 28.04 75.6543 28.04H79.7686C79.8258 28.04 79.8545 28.0758 79.8545 28.1475V31.7998C79.8545 32.6234 79.6611 33.3682 79.2744 34.0342C78.8805 34.7002 78.3613 35.2301 77.7168 35.624C77.0723 36.0179 76.3454 36.2148 75.5361 36.2148ZM84.0117 36H81.5195C81.4479 36 81.4121 35.9642 81.4121 35.8926L81.4336 20.7783C81.4336 20.721 81.4622 20.6924 81.5195 20.6924H83.9902C84.0475 20.6924 84.0762 20.721 84.0762 20.7783L84.0977 35.8926C84.0977 35.9642 84.069 36 84.0117 36ZM90.0811 36.2148C89.2861 36.2148 88.5592 36.0143 87.9004 35.6133C87.2487 35.2122 86.7295 34.6751 86.3428 34.002C85.9632 33.3216 85.7734 32.5661 85.7734 31.7354L85.7949 24.8711C85.7949 24.0547 85.9811 23.3171 86.3535 22.6582C86.7259 21.9922 87.238 21.4587 87.8896 21.0576C88.5485 20.6494 89.279 20.4453 90.0811 20.4453C90.8975 20.4453 91.6243 20.6423 92.2617 21.0361C92.9062 21.43 93.4183 21.9635 93.7979 22.6367C94.1846 23.3027 94.3779 24.0475 94.3779 24.8711V25.8809C94.3779 25.9382 94.3493 25.9668 94.292 25.9668H91.8213C91.764 25.9668 91.7354 25.9382 91.7354 25.8809V24.8711C91.7354 24.3841 91.5778 23.9652 91.2627 23.6143C90.9476 23.2633 90.5537 23.0879 90.0811 23.0879C89.5583 23.0879 89.1572 23.2669 88.8779 23.625C88.5986 23.9831 88.459 24.3984 88.459 24.8711V31.7354C88.459 32.2725 88.6165 32.7129 88.9316 33.0566C89.2467 33.3932 89.6299 33.5615 90.0811 33.5615C90.5537 33.5615 90.9476 33.3753 91.2627 33.0029C91.5778 32.6234 91.7354 32.2008 91.7354 31.7354V30.7148C91.7354 30.6576 91.764 30.6289 91.8213 30.6289H94.3135C94.3708 30.6289 94.3994 30.6576 94.3994 30.7148V31.7354C94.3994 32.5589 94.2061 33.3109 93.8193 33.9912C93.4255 34.6644 92.9062 35.2051 92.2617 35.6133C91.6172 36.0143 90.8903 36.2148 90.0811 36.2148ZM100.028 36H96.0859C96.0286 36 96 35.9642 96 35.8926L96.043 20.7783C96.043 20.721 96.0716 20.6924 96.1289 20.6924H100.361C101.185 20.6924 101.933 20.8929 102.606 21.2939C103.265 21.695 103.785 22.2285 104.164 22.8945C104.544 23.5534 104.733 24.2695 104.733 25.043C104.733 25.6732 104.59 26.2604 104.304 26.8047C104.017 27.349 103.677 27.7894 103.283 28.126C103.706 28.5485 104.035 29.0391 104.271 29.5977C104.508 30.1562 104.626 30.7435 104.626 31.3594C104.626 32.2116 104.422 32.9886 104.014 33.6904C103.598 34.3923 103.043 34.9544 102.349 35.377C101.654 35.7923 100.881 36 100.028 36ZM100.361 23.3027H98.6855V26.7617H100.361C100.87 26.7617 101.282 26.5827 101.597 26.2246C101.912 25.8594 102.069 25.4655 102.069 25.043C102.069 24.5775 101.901 24.1729 101.564 23.8291C101.228 23.4782 100.827 23.3027 100.361 23.3027ZM100.028 29.4258H98.6855L98.6641 33.3145H100.028C100.558 33.3145 101.013 33.1211 101.393 32.7344C101.772 32.3477 101.962 31.8893 101.962 31.3594C101.962 30.8294 101.772 30.3747 101.393 29.9951C101.013 29.6156 100.558 29.4258 100.028 29.4258ZM113.402 36H106.291C106.234 36 106.205 35.9642 106.205 35.8926L106.227 20.7783C106.227 20.721 106.255 20.6924 106.312 20.6924H113.381C113.438 20.6924 113.467 20.7282 113.467 20.7998V23.2598C113.467 23.3171 113.438 23.3457 113.381 23.3457H108.869V26.7832H113.381C113.438 26.7832 113.467 26.8118 113.467 26.8691L113.488 29.3613C113.488 29.4186 113.46 29.4473 113.402 29.4473H108.869V33.293H113.402C113.46 33.293 113.488 33.3288 113.488 33.4004V35.9141C113.488 35.9714 113.46 36 113.402 36ZM114.702 35.8926L117.431 20.7783C117.445 20.721 117.481 20.6924 117.538 20.6924H120.729C120.786 20.6924 120.822 20.721 120.836 20.7783L123.457 35.8926C123.464 35.9642 123.436 36 123.371 36H120.933C120.861 36 120.822 35.9642 120.814 35.8926L120.578 34.2812H117.581L117.345 35.8926C117.338 35.9642 117.302 36 117.237 36H114.788C114.731 36 114.702 35.9642 114.702 35.8926ZM119.01 25.752L118.021 31.9287H120.138L119.235 25.752L119.106 24.9355L119.01 25.752ZM128.882 36.2148C128.108 36.2148 127.392 36.0143 126.733 35.6133C126.075 35.2122 125.548 34.6751 125.154 34.002C124.768 33.3216 124.574 32.5804 124.574 31.7783L124.617 20.7783C124.617 20.721 124.646 20.6924 124.703 20.6924H127.174C127.231 20.6924 127.26 20.721 127.26 20.7783V31.7783C127.26 32.2725 127.417 32.695 127.732 33.0459C128.048 33.3896 128.431 33.5615 128.882 33.5615C129.354 33.5615 129.748 33.3896 130.063 33.0459C130.379 32.695 130.536 32.2725 130.536 31.7783V20.7783C130.536 20.721 130.565 20.6924 130.622 20.6924H133.093C133.15 20.6924 133.179 20.721 133.179 20.7783L133.222 31.7783C133.222 32.5876 133.028 33.3324 132.642 34.0127C132.248 34.6859 131.725 35.223 131.073 35.624C130.422 36.0179 129.691 36.2148 128.882 36.2148ZM139.646 36H137.164C137.1 36 137.067 35.9642 137.067 35.8926V23.3457H134.21C134.138 23.3457 134.103 23.3099 134.103 23.2383L134.124 20.7783C134.124 20.721 134.153 20.6924 134.21 20.6924H142.567C142.646 20.6924 142.686 20.721 142.686 20.7783V23.2383C142.686 23.3099 142.657 23.3457 142.6 23.3457H139.71L139.731 35.8926C139.731 35.9642 139.703 36 139.646 36ZM148.347 36H145.822C145.772 36 145.747 35.9714 145.747 35.9141L145.769 29.6621L142.825 20.7783C142.811 20.721 142.832 20.6924 142.89 20.6924H145.339C145.41 20.6924 145.453 20.721 145.468 20.7783L147.09 26.6973L148.744 20.7783C148.758 20.721 148.794 20.6924 148.852 20.6924H151.322C151.38 20.6924 151.401 20.721 151.387 20.7783L148.411 29.5762L148.433 35.9141C148.433 35.9714 148.404 36 148.347 36ZM162.043 36.2148C161.262 36.2148 160.543 36.0143 159.884 35.6133C159.232 35.2122 158.709 34.6787 158.315 34.0127C157.929 33.3395 157.735 32.6019 157.735 31.7998V30.79C157.735 30.7113 157.771 30.6719 157.843 30.6719H160.313C160.371 30.6719 160.399 30.7113 160.399 30.79V31.7998C160.399 32.2796 160.561 32.695 160.883 33.0459C161.205 33.3896 161.592 33.5615 162.043 33.5615C162.501 33.5615 162.892 33.3861 163.214 33.0352C163.536 32.6771 163.697 32.2653 163.697 31.7998C163.697 31.2627 163.346 30.7936 162.645 30.3926C162.53 30.321 162.38 30.235 162.193 30.1348C162.014 30.0273 161.799 29.9056 161.549 29.7695C161.298 29.6335 161.055 29.501 160.818 29.3721C160.582 29.236 160.353 29.1071 160.131 28.9854C159.329 28.5127 158.731 27.9219 158.337 27.2129C157.95 26.4967 157.757 25.6947 157.757 24.8066C157.757 23.9902 157.957 23.2526 158.358 22.5938C158.759 21.9421 159.282 21.4264 159.927 21.0469C160.578 20.6602 161.284 20.4668 162.043 20.4668C162.824 20.4668 163.54 20.6602 164.191 21.0469C164.843 21.4408 165.362 21.9635 165.749 22.6152C166.143 23.2669 166.34 23.9974 166.34 24.8066V26.6113C166.34 26.6686 166.311 26.6973 166.254 26.6973H163.783C163.726 26.6973 163.697 26.6686 163.697 26.6113L163.676 24.8066C163.676 24.291 163.515 23.8721 163.192 23.5498C162.87 23.2275 162.487 23.0664 162.043 23.0664C161.592 23.0664 161.205 23.2383 160.883 23.582C160.561 23.9258 160.399 24.334 160.399 24.8066C160.399 25.2865 160.5 25.6875 160.7 26.0098C160.908 26.332 161.284 26.64 161.828 26.9336C161.885 26.9622 162.018 27.0339 162.226 27.1484C162.433 27.263 162.662 27.3919 162.913 27.5352C163.171 27.6712 163.404 27.7965 163.611 27.9111C163.819 28.0186 163.944 28.083 163.987 28.1045C164.718 28.5127 165.294 29.014 165.717 29.6084C166.146 30.2028 166.361 30.9333 166.361 31.7998C166.361 32.6377 166.168 33.3896 165.781 34.0557C165.387 34.7217 164.865 35.248 164.213 35.6348C163.561 36.0215 162.838 36.2148 162.043 36.2148ZM170.465 36H167.973C167.915 36 167.887 35.9642 167.887 35.8926L167.908 20.7783C167.908 20.721 167.944 20.6924 168.016 20.6924H170.465C170.536 20.6924 170.572 20.721 170.572 20.7783L170.551 26.7617H173.849V20.7783C173.849 20.721 173.877 20.6924 173.935 20.6924H176.384C176.455 20.6924 176.491 20.721 176.491 20.7783L176.534 35.8926C176.534 35.9642 176.498 36 176.427 36H173.956C173.884 36 173.849 35.9642 173.849 35.8926V29.4258H170.551V35.8926C170.551 35.9642 170.522 36 170.465 36ZM182.399 36.2148C181.619 36.2148 180.899 36.0143 180.24 35.6133C179.589 35.2122 179.062 34.6787 178.661 34.0127C178.267 33.3395 178.07 32.6019 178.07 31.7998L178.092 24.8281C178.092 24.0117 178.289 23.2777 178.683 22.626C179.069 21.9671 179.592 21.4408 180.251 21.0469C180.91 20.6458 181.626 20.4453 182.399 20.4453C183.201 20.4453 183.921 20.6423 184.559 21.0361C185.203 21.43 185.719 21.96 186.105 22.626C186.499 23.2848 186.696 24.0189 186.696 24.8281L186.718 31.7998C186.718 32.6019 186.524 33.3359 186.138 34.002C185.744 34.6751 185.221 35.2122 184.569 35.6133C183.918 36.0143 183.194 36.2148 182.399 36.2148ZM182.399 33.5615C182.843 33.5615 183.23 33.3825 183.56 33.0244C183.889 32.6592 184.054 32.251 184.054 31.7998L184.032 24.8281C184.032 24.3411 183.878 23.9294 183.57 23.5928C183.262 23.2562 182.872 23.0879 182.399 23.0879C181.948 23.0879 181.562 23.2526 181.239 23.582C180.917 23.9115 180.756 24.3268 180.756 24.8281V31.7998C180.756 32.2796 180.917 32.695 181.239 33.0459C181.562 33.3896 181.948 33.5615 182.399 33.5615ZM190.961 36H188.49C188.419 36 188.383 35.9642 188.383 35.8926L188.426 20.7783C188.426 20.721 188.454 20.6924 188.512 20.6924H192.744C194.09 20.6924 195.154 21.1042 195.935 21.9277C196.722 22.7441 197.116 23.8577 197.116 25.2686C197.116 26.2998 196.912 27.1986 196.504 27.9648C196.089 28.724 195.551 29.3112 194.893 29.7266C194.234 30.1419 193.518 30.3496 192.744 30.3496H191.068V35.8926C191.068 35.9642 191.033 36 190.961 36ZM192.744 23.3027L191.068 23.3242V27.6855H192.744C193.21 27.6855 193.614 27.4635 193.958 27.0195C194.302 26.5684 194.474 25.9847 194.474 25.2686C194.474 24.6956 194.32 24.2266 194.012 23.8613C193.704 23.4889 193.281 23.3027 192.744 23.3027Z" fill="white"/>
<g clip-path="url(#clip0_3_26)">
<path d="M35.52 40H20.52C19.6855 39.9998 18.8621 39.8091 18.1125 39.4423C17.3629 39.0755 16.707 38.5423 16.1948 37.8835C15.6826 37.2247 15.3276 36.4576 15.157 35.6407C14.9863 34.8238 15.0044 33.9788 15.21 33.17L18.25 20.76C18.3048 20.5381 18.4339 20.3417 18.6158 20.2034C18.7978 20.0651 19.0216 19.9933 19.25 20H36C36.2206 19.9899 36.4383 20.0531 36.6192 20.1797C36.8001 20.3064 36.934 20.4893 37 20.7L40.78 32.86C41.0385 33.6859 41.098 34.5612 40.9537 35.4145C40.8095 36.2678 40.4656 37.0749 39.95 37.77C39.4429 38.468 38.7763 39.0346 38.0056 39.4226C37.235 39.8105 36.3828 40.0085 35.52 40ZM20 22L17.11 33.65C16.9813 34.164 16.971 34.7005 17.0799 35.2191C17.1887 35.7376 17.4139 36.2247 17.7384 36.6436C18.0629 37.0625 18.4783 37.4022 18.9532 37.6372C19.4281 37.8721 19.9502 37.9962 20.48 38H35.48C36.0242 38.0009 36.5609 37.8726 37.0459 37.6258C37.5309 37.3789 37.9505 37.0205 38.27 36.58C38.5988 36.137 38.8182 35.6225 38.9103 35.0785C39.0024 34.5346 38.9646 33.9766 38.8 33.45L35.28 22H20Z" fill="white"/>
<path d="M32 28C31.7348 28 31.4804 27.8946 31.2929 27.7071C31.1054 27.5196 31 27.2652 31 27V19C31 18.2044 30.6839 17.4413 30.1213 16.8787C29.5587 16.3161 28.7956 16 28 16C27.2044 16 26.4413 16.3161 25.8787 16.8787C25.3161 17.4413 25 18.2044 25 19V27C25 27.2652 24.8946 27.5196 24.7071 27.7071C24.5196 27.8946 24.2652 28 24 28C23.7348 28 23.4804 27.8946 23.2929 27.7071C23.1054 27.5196 23 27.2652 23 27V19C23 17.6739 23.5268 16.4021 24.4645 15.4645C25.4021 14.5268 26.6739 14 28 14C29.3261 14 30.5979 14.5268 31.5355 15.4645C32.4732 16.4021 33 17.6739 33 19V27C33 27.2652 32.8946 27.5196 32.7071 27.7071C32.5196 27.8946 32.2652 28 32 28Z" fill="white"/>
</g>
<defs>
<clipPath id="clip0_3_26">
<rect width="32" height="32" fill="white" transform="translate(12 11)"/>
</clipPath>
</defs>
</svg>
