<svg width="20" height="17" viewBox="0 0 20 17" fill="none" xmlns="http://www.w3.org/2000/svg">
<path d="M19.5745 13.8503C19.192 14.0462 18.7212 13.8964 18.5237 13.5117H18.5237C17.3258 11.1762 14.1453 7.82797 9.99996 7.82797C6.28231 7.82797 2.97852 10.5828 1.47625 13.5117C1.27864 13.895 0.80801 14.0463 0.424612 13.8492C0.0412524 13.6522 -0.110466 13.1823 0.0859009 12.7984C1.81192 9.42652 5.60758 6.26475 9.99996 6.26475C15.0093 6.26475 18.5971 10.2256 19.914 12.7984C20.1106 13.1827 19.9586 13.6536 19.5745 13.8503ZM0.303557 5.45579L2.04356 7.0262C2.36582 7.31707 2.85965 7.28796 3.14696 6.96937C3.43594 6.64884 3.41055 6.15463 3.09016 5.86547L1.35016 4.29506C1.02989 4.00598 0.535901 4.03131 0.24676 4.35188C-0.0422241 4.67242 -0.0168334 5.16663 0.303557 5.45579ZM17.9563 7.0262L19.6963 5.45579C20.0167 5.16663 20.0421 4.67242 19.7531 4.35188C19.4641 4.03138 18.9701 4.0059 18.6497 4.29506L16.9097 5.86547C16.5893 6.15459 16.5639 6.64884 16.8529 6.96937C17.1405 7.28831 17.6345 7.31672 17.9563 7.0262ZM9.99992 3.91016C10.4314 3.91016 10.7812 3.56019 10.7812 3.12855V0.781609C10.7812 0.349966 10.4314 0 9.99992 0C9.56844 0 9.21867 0.349966 9.21867 0.781609V3.12855C9.21871 3.56023 9.56848 3.91016 9.99992 3.91016ZM13.8378 13.1545C13.8378 15.2749 12.1161 17 9.99996 17C7.88379 17 6.16211 15.2749 6.16211 13.1545C6.16211 11.0341 7.88379 9.30904 9.99996 9.30904C12.1161 9.30904 13.8378 11.0341 13.8378 13.1545ZM12.2754 13.1545C12.2754 11.8961 11.2547 10.8723 10 10.8723C8.74535 10.8723 7.72461 11.8961 7.72461 13.1545C7.72461 14.413 8.74531 15.4368 9.99996 15.4368C11.2546 15.4368 12.2754 14.413 12.2754 13.1545Z" fill="black"/>
</svg>
